# xmcd
#
# Track frame offsets:
#	150
#	18502
#	36992
#	74875
#	94160
#	117997
#	140232
#	168445
#	183510
#	202277
#
# Disc length: 3051 seconds
#
# Revision: 1
# Processed by: cddbd v1.4PL0 Copyright (c) Steve Scherf et al.
# Submitted via: audiograbber 1.81.02
#
DISCID=a20be90a
DTITLE=T-Bone Singleton - Walkin' the Floor
DYEAR=1996
DGENRE=Blues
TTITLE0=Sunset Blues
TTITLE1=Walkin' the Floor
TTITLE2=Reconcile
TTITLE3=Don't Ever Go
TTITLE4=Boogie Train
TTITLE5=Light in a Dark Place
TTITLE6=Gonna Make Me Cry
TTITLE7=Let Me Be Your Man
TTITLE8=Tryna Get Along
TTITLE9=Power Up
EXTD=
EXTT0=
EXTT1=
EXTT2=
EXTT3=
EXTT4=
EXTT5=
EXTT6=
EXTT7=
EXTT8=
EXTT9=
PLAYORDER=
